<?xml version="1.0" encoding="UTF-8"?>
<svg version="1.1" xmlns="http://www.w3.org/2000/svg" width="1536" height="1024">
<path d="M0 0 C506.88 0 1013.76 0 1536 0 C1536 337.92 1536 675.84 1536 1024 C1029.12 1024 522.24 1024 0 1024 C0 686.08 0 348.16 0 0 Z M814.1015625 272.1015625 C811.0634793 275.66902435 811.0634793 275.66902435 810 280 C809.4237085 280.01458252 808.84741699 280.02916504 808.25366211 280.04418945 C735.72779277 282.06773486 665.66339036 308.25381574 614 360 C612.95779297 360.99 612.95779297 360.99 611.89453125 362 C605.50255606 368.14013376 600.26286942 374.90367607 595 382 C594.00034926 383.3335952 593.00051632 384.66705406 592 386 C592.33 386.66 592.66 387.32 593 388 C593.73863281 387.23816406 594.47726562 386.47632813 595.23828125 385.69140625 C601.81551176 378.97093098 608.5722582 372.78851603 616 367 C617.00675781 366.19949219 618.01351562 365.39898437 619.05078125 364.57421875 C667.01723852 326.71453005 725.38508431 306.34079418 786 302 C787.14033691 301.9071875 788.28067383 301.814375 789.45556641 301.71875 C806.93468833 300.40015409 806.93468833 300.40015409 811.6171875 304.02734375 C813.3125 306.625 813.3125 306.625 814.59765625 309.37890625 C817.41617215 314.64694015 823.50596322 317.16865441 829 319 C840.31844186 319.7478513 847.50604261 319.15739475 856.25 311.875 C863.2267862 305.16655173 865.34738003 299.67594015 865.5625 290 C865.44980762 280.51086398 862.48965306 275.20402657 855.875 268.625 C850.184836 263.85628159 844.13819388 262.41381939 836.875 261.6875 C827.70552499 262.68418207 820.47175497 265.04978565 814.1015625 272.1015625 Z M601 391 C600.34902344 391.59941406 599.69804688 392.19882812 599.02734375 392.81640625 C568.98810578 421.15129029 551.40544727 465.62490805 549.87402344 506.35009766 C548.88723499 551.73612093 559.54438811 596.65333608 588 633 C588.57234375 633.763125 589.1446875 634.52625 589.734375 635.3125 C594.16996219 641.17235831 598.97277609 646.64223996 604 652 C604.46116211 652.49516113 604.92232422 652.99032227 605.39746094 653.50048828 C642.12467718 692.63144591 696.94191295 715.3675487 750.2565918 717.10620117 C815.3677867 718.29878297 879.13304646 697.0549111 927.00390625 651.90625 C928.00407769 650.93902139 929.0026602 649.97014814 930 649 C930.60569824 648.41476562 931.21139648 647.82953125 931.83544922 647.2265625 C933.7738922 645.34709654 935.70160697 643.45735823 937.625 641.5625 C938.53221802 640.67510132 938.53221802 640.67510132 939.45776367 639.76977539 C940.02084229 639.20766357 940.5839209 638.64555176 941.1640625 638.06640625 C941.66373535 637.57084229 942.1634082 637.07527832 942.67822266 636.56469727 C944.14839276 634.82433521 945.05932436 633.06753248 946 631 C943.00559462 632.33260364 941.06785047 633.759581 938.8515625 636.16015625 C934.71354903 640.41598969 930.13799752 643.91113728 925.375 647.4375 C924.4890918 648.09637207 923.60318359 648.75524414 922.69042969 649.43408203 C915.99548884 654.3657212 909.22000699 658.86539008 902 663 C900.79629562 663.71908311 899.59319855 664.43918356 898.390625 665.16015625 C873.28697328 679.98889931 838.6893971 694.58318459 809 694 C810.1653125 693.67128906 811.330625 693.34257813 812.53125 693.00390625 C852.79499687 681.42615148 888.68808733 663.20294025 919 634 C919.70125 633.3503125 920.4025 632.700625 921.125 632.03125 C941.50610886 612.63632383 961.05772976 581.73924222 962 553 C961.12601563 554.09634766 961.12601563 554.09634766 960.234375 555.21484375 C959.49703125 556.13394531 958.7596875 557.05304688 958 558 C957.11054687 559.11568359 957.11054687 559.11568359 956.203125 560.25390625 C945.02986017 573.46070528 930.24014493 582.21030263 915 590 C914.28070312 590.37189453 913.56140625 590.74378906 912.8203125 591.12695312 C893.82169949 600.84916755 872.90493517 609.48684474 852 614 C852.83155379 616.22968861 852.83155379 616.22968861 855.265625 616.8515625 C866.46037583 619.75281991 876.78544725 619.83528196 888 617 C883.35479158 620.36401843 878.68763939 623.69535628 874 627 C873.38044434 627.43763672 872.76088867 627.87527344 872.12255859 628.32617188 C832.48198052 656.12853088 781.89737836 666.79243396 734.171875 658.97265625 C706.5835547 653.99171791 681.39121681 643.3942428 658.83203125 626.76171875 C652.98609675 622.47554713 646.76738022 618.81973172 640.5 615.1875 C639.4584375 614.58292969 638.416875 613.97835938 637.34375 613.35546875 C636.5703125 612.90816406 635.796875 612.46085937 635 612 C635.76183594 612.33773438 636.52367187 612.67546875 637.30859375 613.0234375 C652.51984873 619.59409196 665.89150143 620.9564611 682 616 C681.17959578 613.79416161 681.17959578 613.79416161 678.88061523 613.19726562 C677.4837146 612.80571289 677.4837146 612.80571289 676.05859375 612.40625 C675.01203613 612.10348145 673.96547852 611.80071289 672.88720703 611.48876953 C671.74880371 611.16247559 670.61040039 610.83618164 669.4375 610.5 C639.96497521 601.72362876 612.37665884 588.80382386 588 570 C586.948125 569.236875 585.89625 568.47375 584.8125 567.6875 C578.96435712 562.09927458 573.87743465 555.09016621 570 548 C570 544.66170376 571.24107121 543.74128944 573.5625 541.25 C574.366875 540.5075 575.17125 539.765 576 539 C575.26523437 538.45472656 574.53046875 537.90945313 573.7734375 537.34765625 C570.90138645 534.91652571 568.84392684 532.46893351 566.625 529.4375 C565.91601562 528.48746094 565.20703125 527.53742188 564.4765625 526.55859375 C563.98929688 525.71425781 563.50203125 524.86992188 563 524 C564.30756214 520.07731358 566.72532322 518.79866945 570 516.5625 C571.27866575 515.67060147 572.55731066 514.77867306 573.8359375 513.88671875 C574.51366211 513.4179834 575.19138672 512.94924805 575.88964844 512.46630859 C578.03294741 510.97710757 580.16262811 509.47020081 582.2890625 507.95703125 C589.70471709 502.68280456 597.15361705 497.49406537 604.77734375 492.5234375 C607.07126965 491.05105295 607.07126965 491.05105295 609 489 C609.12691741 486.57720345 609.13528504 484.26925998 609.0546875 481.8515625 C609.02572305 480.36582568 608.99793723 478.88006552 608.97119141 477.39428711 C608.9545343 476.61519989 608.9378772 475.83611267 608.92071533 475.03341675 C608.65233633 460.89442983 608.99908672 447.66748766 613 434 C613.20898926 433.24557617 613.41797852 432.49115234 613.63330078 431.71386719 C617.65283839 417.43622873 624.42527619 396.68026917 638.05078125 388.81640625 C642.07389302 387.13137547 645.84938731 386.89280006 650.14453125 387.29296875 C655.34475622 387.68857572 659.37067017 387.97803066 663.94140625 385.234375 C666.45165801 383.06976292 668.85812713 380.83799937 671.26123047 378.55761719 C674.57634394 375.58788622 678.19904869 373.02873495 681.8125 370.4375 C682.58561523 369.88255859 683.35873047 369.32761719 684.15527344 368.75585938 C690.5961011 364.18877605 697.19581655 360.00982331 704.05761719 356.10791016 C706.11308 354.93550062 708.15368452 353.7392862 710.1953125 352.54296875 C727.26696284 342.66518823 745.08787344 335.51153403 764 330 C764 329.67 764 329.34 764 329 C703.53866859 326.83739907 644.50584202 348.97520792 601 391 Z M944.22680664 337.65307617 C941.12706583 339.52800985 939.59186023 338.91533162 936.109375 338.0859375 C934.92214844 337.81910156 933.73492188 337.55226563 932.51171875 337.27734375 C931.27035156 336.97957031 930.02898437 336.68179687 928.75 336.375 C907.61835056 331.39045811 886.63124736 329.42890617 864.9375 329.5625 C863.34766296 329.56706207 863.34766296 329.56706207 861.72570801 329.57171631 C843.848364 329.64711845 826.61605049 330.78194212 809 334 C807.78554199 334.21430664 806.57108398 334.42861328 805.31982422 334.64941406 C761.54774117 342.52254433 714.16990492 358.26774507 680 388 C679.34 388.99 678.68 389.98 678 391 C680.40459931 391.87363755 681.54557676 392.19417305 683.94091797 391.1706543 C684.61783691 390.72633057 685.29475586 390.28200684 685.9921875 389.82421875 C686.76812256 389.33083008 687.54405762 388.83744141 688.34350586 388.32910156 C689.17889893 387.78737305 690.01429199 387.24564453 690.875 386.6875 C748.48247023 350.79690139 824.46150367 338.55357881 891 350 C892.10714355 350.18224121 893.21428711 350.36448242 894.35498047 350.55224609 C901.23571169 351.6960088 908.08190488 352.95710206 914.91357422 354.36474609 C916.90212804 354.77403395 918.89324416 355.17115603 920.88720703 355.55322266 C934.7839301 358.26447308 934.7839301 358.26447308 937.58203125 362.2578125 C938.3125 364.8125 938.3125 364.8125 938.66015625 367.44140625 C939.51298276 373.86211157 944.27935942 378.86787396 949.1953125 382.75 C956.18891372 387.59405279 963.95440666 388.8075378 972.24609375 387.48046875 C981.27990658 385.15019194 988.57977808 380.69430565 993.46875 372.5546875 C997.52699065 363.77149524 998.09185339 355.66077609 995.02734375 346.453125 C991.61857842 338.31356368 985.94078714 333.63007412 978 330 C965.70314574 326.00975712 953.7439456 328.78063395 944.22680664 337.65307617 Z M744 380 C748.14626004 379.55575785 752.28024769 379.10294695 756.40869141 378.51245117 C766.60129193 377.09221351 776.59047308 376.63549142 786.875 376.6875 C787.66536652 376.68998749 788.45573303 376.69247498 789.27005005 376.69503784 C810.20289001 376.79684741 831.15281461 379.44215437 849.6875 390.0625 C854.82962757 392.85237772 858.60538531 391.59932509 864 390 C874.74282514 387.44377567 889.03548793 385.20246571 899 391 C911.20399345 400.86350156 916.8820124 419.47115556 921 434 C921.21027832 434.680625 921.42055664 435.36125 921.63720703 436.0625 C924.26713221 444.72480303 925.12761696 452.90318077 924.85546875 461.92578125 C924.83570984 462.72278442 924.81595093 463.5197876 924.79559326 464.34094238 C924.68836597 468.39006364 924.51559544 472.41942991 924.23779297 476.46044922 C923.69351535 484.59598898 923.69351535 484.59598898 927.20751953 491.67114258 C930.04171632 493.74908176 932.87916178 495.39137707 936 497 C937.36392399 497.91159049 938.71513883 498.84278092 940.046875 499.80078125 C941.28050931 500.63911183 942.51488634 501.47635049 943.75 502.3125 C950.05420982 506.60165512 956.22430935 511.0450594 962.30371094 515.64770508 C965.32220993 518.16714207 965.32220993 518.16714207 969 519 C971.6502507 473.65766732 964.40114192 430.22551412 933.6875 394.9375 C913.2565667 372.93763838 887.93686297 363.06663861 858.02572632 361.92462158 C797.44295317 359.17753037 797.44295317 359.17753037 744 380 Z M641.9375 401.75 C629.5390363 422.54742298 628.53152983 448.68029928 634.109375 471.8125 C636.10073009 479.51204032 638.43396387 486.86792775 642 494 C641.33097656 494.22945313 640.66195312 494.45890625 639.97265625 494.6953125 C636.16622115 496.36594236 632.88798442 498.57253098 629.4375 500.875 C621.27927929 506.24180038 612.95299492 511.28661368 604.55859375 516.2734375 C600.33257453 518.78659409 596.15663833 521.37392621 592 524 C596.93006161 529.61007011 603.34201192 533.67100596 610 537 C609.07767578 537.50660156 609.07767578 537.50660156 608.13671875 538.0234375 C607.32847656 538.46945312 606.52023437 538.91546875 605.6875 539.375 C604.88699219 539.81585937 604.08648438 540.25671875 603.26171875 540.7109375 C601.46472057 541.73513335 599.72099292 542.85267138 598 544 C619.79087316 543.60897291 637.66623296 536.64459885 654.7109375 523.3671875 C672.79556737 509.88591796 694.50166109 501.38755508 717.20703125 504.4296875 C731.91377426 507.55222009 743.97529243 517.26788016 753 529 C755.06276428 525.90585358 755.4910652 524.23139629 756.11328125 520.63330078 C756.30688232 519.5343045 756.5004834 518.43530823 756.69995117 517.30300903 C757.00316284 515.51719925 757.00316284 515.51719925 757.3125 513.6953125 C757.52688721 512.46521454 757.74127441 511.23511658 757.9621582 509.96774292 C758.53207746 506.68891776 759.09564865 503.40912483 759.65637207 500.12872314 C760.22081605 496.83740315 760.7946348 493.54773155 761.3671875 490.2578125 C763.34452027 478.8522483 765.27554902 467.44694459 767 456 C767.11861893 456.67857056 767.23723785 457.35714111 767.35945129 458.05627441 C768.49068472 464.5265661 769.62287522 470.99668954 770.75607777 477.46663666 C771.33829956 480.79098324 771.92007597 484.11540627 772.5012207 487.43994141 C776.13279997 508.24141198 776.13279997 508.24141198 780 529 C782.85799795 526.75282114 785.35387407 524.7489223 787.5 521.8125 C795.84789344 511.85511554 808.28030059 505.7544413 821 504 C845.08605995 502.33447458 865.75938504 513.40223847 884.625 527.1875 C899.89099412 538.21963329 919.06905081 544.52238431 938 545 C935.66302971 542.66302971 933.50902101 541.72905946 930.5 540.375 C929.5203125 539.92898438 928.540625 539.48296875 927.53125 539.0234375 C925.14602381 537.87505283 925.14602381 537.87505283 923 538 C923 537.34 923 536.68 923 536 C923.721875 535.89171875 924.44375 535.7834375 925.1875 535.671875 C928.22220152 534.94691853 930.33806755 533.86379655 933 532.25 C933.825 531.76015625 934.65 531.2703125 935.5 530.765625 C938.32477551 528.77062729 940.61879327 526.50026707 943 524 C941.59814453 523.23429688 941.59814453 523.23429688 940.16796875 522.453125 C929.16939357 516.38729578 918.56366744 509.78946834 908 503 C906.56125768 502.07803173 905.12245816 501.15615271 903.68359375 500.234375 C900.45206905 498.16188944 897.22466363 496.08314323 894 494 C894.15855469 493.48695313 894.31710937 492.97390625 894.48046875 492.4453125 C896.26533944 486.58778106 897.96056387 480.70519425 899.625 474.8125 C899.95213989 473.67288818 899.95213989 473.67288818 900.28588867 472.51025391 C906.22932534 451.30976353 904.7581377 425.8479968 895 406 C892.25498319 402.0121906 892.25498319 402.0121906 888 400 C876.57426639 399.80657767 866.61025157 401.95971502 856 406 C854.98607178 406.38333496 854.98607178 406.38333496 853.95166016 406.77441406 C841.70161138 411.51392973 830.54382054 417.70897967 821.49609375 427.43359375 C819.96255184 429.03920812 818.35171153 430.41894222 816.625 431.8125 C813.9683878 433.7292087 813.9683878 433.7292087 813 436 C812.46375 435.89042969 811.9275 435.78085937 811.375 435.66796875 C808.58496508 435.10353734 805.79269159 434.55114491 803 434 C801.09927734 433.62101562 801.09927734 433.62101562 799.16015625 433.234375 C781.23052796 429.71367941 763.76404204 428.8578372 745.625 431.3125 C744.69083252 431.43665283 743.75666504 431.56080566 742.79418945 431.6887207 C738.77604738 432.26967842 734.96483007 432.90273682 731.140625 434.2890625 C727.8350344 435.45155489 725.50169788 436.23440327 722 436 C718.52836133 433.50766047 715.94158416 430.69179815 713.15234375 427.48046875 C699.63872575 411.99531117 675.79519784 401.32245652 655.52734375 399.7265625 C648.43431017 399.39248227 648.43431017 399.39248227 641.9375 401.75 Z M711 525 C709.97858294 528.97217747 709.90746261 532.02922336 711 536 C714.87164836 541.33968275 720.03064411 545.70562311 725 550 C721.76822535 553.93516491 718.67498368 557.45256408 714.5625 560.5 C712.51751329 562.15493239 712.51751329 562.15493239 711 564 C710.69230845 568.4615275 711.50959455 570.30154376 714.0625 573.9375 C714.701875 574.618125 715.34125 575.29875 716 576 C721.45999456 574.51950148 724.67181788 570.73543911 728.5 566.8125 C729.15097656 566.16474609 729.80195312 565.51699219 730.47265625 564.84960938 C734.44898113 560.82910311 738.07091782 556.85274528 741 552 C739.52685407 541.88692424 727.11068143 532.68304604 720 526 C717.04335481 524.5216774 714.25770263 524.93967217 711 525 Z M808 532 C806.73349609 533.21042969 806.73349609 533.21042969 805.44140625 534.4453125 C800.78063483 538.97450196 796.2739195 543.3553112 793 549 C793.87280498 556.91872152 802.3849262 563.60013808 807.6875 569 C808.24598633 569.57613037 808.80447266 570.15226074 809.37988281 570.74584961 C812.17650465 573.53786898 814.10851392 575.27902453 818 576 C818.8722879 574.78362621 819.72220494 573.55119108 820.5625 572.3125 C821.03816406 571.62800781 821.51382813 570.94351563 822.00390625 570.23828125 C823.1667462 568.03656536 823.1667462 568.03656536 822.9921875 565.55859375 C821.60709449 561.98679877 819.43907068 560.24876361 816.5625 557.75 C815.57378906 556.87859375 814.58507812 556.0071875 813.56640625 555.109375 C811.20731048 553.01097222 811.20731048 553.01097222 809 552 C808.67 551.01 808.34 550.02 808 549 C808.81210937 548.6596875 808.81210937 548.6596875 809.640625 548.3125 C814.9769203 545.34396487 819.32924434 540.8240674 823 536 C823.91128617 532.45927352 823.90335203 529.54055715 823 526 C821.9236509 524.73745077 821.9236509 524.73745077 819.4375 524.5 C814.20060481 525.26173021 811.67033378 528.36203248 808 532 Z M680.9375 529.8125 C679.514375 531.03259766 679.514375 531.03259766 678.0625 532.27734375 C677.0398198 533.18281417 676.01905359 534.09044997 675 535 C674.45730469 535.48098145 673.91460938 535.96196289 673.35546875 536.45751953 C671.70898814 537.9222896 670.07085726 539.3956159 668.4375 540.875 C667.92501709 541.3388208 667.41253418 541.8026416 666.88452148 542.28051758 C664.56016197 544.42183818 662.7648825 546.35267624 661 549 C661.54761486 555.87804269 666.70413205 560.01383858 671.6640625 564.3046875 C673.54639377 565.84477672 675.44225792 567.36848022 677.3515625 568.875 C679.63521853 570.70731398 681.74746549 572.61824256 683.875 574.625 C686.69866392 577.20389958 686.69866392 577.20389958 689.625 577.25 C693.04141558 575.45188654 694.69872605 573.09028216 697 570 C691.91393826 563.67678811 685.36222199 555.68111099 678 552 C679.27132506 548.18602483 680.986462 547.16326771 684.125 544.6875 C685.11371094 543.89859375 686.10242188 543.1096875 687.12109375 542.296875 C688.07113281 541.53890625 689.02117188 540.7809375 690 540 C692.35281869 538.02121915 694.67672418 536.01350571 697 534 C695.74426756 530.1281583 694.63191921 527.97161329 691 526 C686.34150752 525.37259361 684.41909609 526.81402132 680.9375 529.8125 Z M837 531 C837.13315186 533.94144568 837.9845787 534.98346645 840.00390625 537.1484375 C840.84824219 537.88320313 841.69257812 538.61796875 842.5625 539.375 C843.4596875 540.15746094 844.356875 540.93992187 845.28125 541.74609375 C848.27315397 544.22645092 851.32996116 546.56703494 854.50390625 548.80859375 C856 550 856 550 857 552 C856.43023438 552.25136719 855.86046875 552.50273438 855.2734375 552.76171875 C851.80595103 554.65036688 849.16017747 557.32073925 846.265625 559.98046875 C844.36307398 561.67636336 842.44089019 563.1431582 840.375 564.625 C837.67261408 566.80284826 837.67261408 566.80284826 837.8125 570.0625 C839.26651767 573.65928055 840.65835326 575.05718213 844 577 C848.48749849 576.41792793 851.28537158 573.51624197 854.5625 570.625 C855.17295166 570.08987793 855.78340332 569.55475586 856.41235352 569.00341797 C858.28541178 567.34697852 860.1438644 565.67536242 862 564 C862.57459961 563.48953125 863.14919922 562.9790625 863.74121094 562.453125 C865.32810786 561.03174414 866.88636718 559.58522112 868.4375 558.125 C869.79681641 556.86042969 869.79681641 556.86042969 871.18359375 555.5703125 C873.30539923 553.1007508 873.30539923 553.1007508 872.96484375 549.88671875 C871.99902449 546.99708138 871.32431872 545.72371135 869.125 543.6875 C868.49980469 543.10613281 867.87460937 542.52476562 867.23046875 541.92578125 C863.73616604 538.90880886 860.18443884 535.97193883 856.578125 533.08984375 C854.53356608 531.4325119 852.61307946 529.72626197 850.6875 527.9375 C848.11845758 525.80576917 848.11845758 525.80576917 844.9375 525.375 C840.9623277 526.22078134 839.41331242 527.78225011 837 531 Z M720.4375 593.05078125 C717.46255649 597.08473998 715.57903298 601.02031639 715 606 C714.92394531 606.64710938 714.84789062 607.29421875 714.76953125 607.9609375 C714.27176933 615.6291617 716.96802102 621.53232325 721.984375 627.26953125 C729.09121034 634.06134729 737.43872894 637.62146513 747.25 638.1875 C751.66829501 637.96658525 755.72440898 637.08586439 760 636 C760 633.69 760 631.38 760 629 C759.24074219 628.64808594 758.48148438 628.29617188 757.69921875 627.93359375 C749.63744405 623.92884704 749.63744405 623.92884704 746.8125 619.8125 C745.74833362 614.81910389 745.75181999 610.08309438 746 605 C750.1397861 603.01822406 753.49186752 602.75432969 758.05859375 602.76953125 C758.72536636 602.76998947 759.39213898 602.77044769 760.07911682 602.7709198 C761.48350819 602.77392847 762.88789663 602.78177308 764.29223633 602.79418945 C766.42736816 602.81241352 768.56206417 602.81469903 770.69726562 602.81445312 C776.56477149 602.83550759 782.21500913 602.88973804 788 604 C788.57798165 617.2293578 788.57798165 617.2293578 785 622 C782.16301966 624.158572 779.38604618 625.81126631 776.1875 627.375 C773.67208784 628.88682838 773.67208784 628.88682838 773.1875 632.1875 C773.0946875 633.5796875 773.0946875 633.5796875 773 635 C781.32552119 638.67836664 789.85458767 638.76390366 798.46875 636.00390625 C806.47556746 632.82836291 813.27083924 627.62284539 817.1015625 619.73046875 C820.00383613 611.76955931 819.32396501 605.45361941 816.25 597.640625 C811.46920258 587.54119044 801.45756305 581.57890827 791.32421875 577.7265625 C782.85442213 575.07886137 776.0068001 575.34777539 768 579 C767.67 579.66 767.34 580.32 767 581 C768.98 581.33 770.96 581.66 773 582 C773 584.97 773 587.94 773 591 C764.42857143 591.28571429 764.42857143 591.28571429 761 589 C761.75 582.25 761.75 582.25 764 580 C759.48133922 576.09196906 755.95160149 575.31627521 750 575.55078125 C738.4360487 577.2823625 727.77884734 584.12900497 720.4375 593.05078125 Z " fill="#000000" transform="translate(0,0)"/>
<path d="M0 0 C3.89642938 0.02533439 6.37665643 0.19541954 9.4375 2.6875 C12.25691926 5.87789548 12.75020097 7.5339631 13.0625 11.75 C12.74314228 16.38068692 11.27111188 18.67328614 8.3125 22.125 C4.88447204 24.98168997 1.05011939 24.73412029 -3.1875 24.375 C-7.49369632 22.13909037 -10.45150997 19.97026772 -12.1875 15.375 C-12.48868376 10.36439738 -11.93822023 7.27586428 -8.6875 3.375 C-7.8625 2.715 -7.0375 2.055 -6.1875 1.375 C-4.47710219 -0.33539781 -2.33656044 0.08198458 0 0 Z " fill="#000000" transform="translate(836.1875,278.625)"/>
<path d="M0 0 C4.35872 4.47048205 5.35344989 7.67380977 5.28515625 13.7421875 C4.85933373 17.11376856 3.46522826 18.74020743 1 21 C-3.26607519 23.50264536 -7.15841668 23.91135686 -12 23 C-15.64569448 21.16024323 -18.27140571 18.8928429 -19.7578125 15.03125 C-20.61851734 10.26990407 -19.75889365 7.04637736 -17 3 C-11.51629432 -2.20249 -6.89216212 -2.91537043 0 0 Z " fill="#000000" transform="translate(974,347)"/>
<path d="M0 0 C16.51480253 3.38067722 31.87339616 15.73637095 43 28 C43 28.66 43 29.32 43 30 C42.11957031 30.08636719 41.23914063 30.17273438 40.33203125 30.26171875 C32.84752656 30.85291665 32.84752656 30.85291665 26.6875 34.625 C26.130625 35.40875 25.57375 36.1925 25 37 C27.97 37.66 30.94 38.32 34 39 C31.97138632 43.05722737 30.7943036 44.1998923 27.3125 46.875 C21.70523171 51.32826584 16.49499602 56.10927208 11.30395508 61.03857422 C7.64145871 64.50737852 3.91133661 67.81342868 0 71 C-2.61195742 64.18327186 -3.84909392 57.54727217 -4.6875 50.3125 C-4.81342529 49.2517627 -4.93935059 48.19102539 -5.0690918 47.09814453 C-6.83603652 31.43849227 -6.80644777 15.89480081 -1 1 C-0.67 0.67 -0.34 0.34 0 0 Z " fill="#000000" transform="translate(651,415)"/>
<path d="M0 0 C1.01171875 1.85546875 1.01171875 1.85546875 1.6875 4.1875 C2.03361328 5.32251953 2.03361328 5.32251953 2.38671875 6.48046875 C4.22800205 14.04497656 4.23182628 21.43975637 4.25 29.1875 C4.25167175 29.85418701 4.25334351 30.52087402 4.25506592 31.20776367 C4.25705038 44.42430575 3.50619329 57.46102737 -1 70 C-5.14334253 66.57723878 -8.99408544 63.03341252 -12.75 59.1875 C-17.07682621 54.80798793 -21.63230045 50.89357577 -26.4375 47.05078125 C-29.69481555 44.44393573 -32.8475577 41.73211666 -36 39 C-35 37 -35 37 -33.15234375 36.3671875 C-32.42144531 36.20476562 -31.69054687 36.04234375 -30.9375 35.875 C-29.83728516 35.62363281 -29.83728516 35.62363281 -28.71484375 35.3671875 C-28.14894531 35.24601562 -27.58304688 35.12484375 -27 35 C-27 34.01 -27 33.02 -27 32 C-31.3951568 30.30955508 -35.39152813 29.66044026 -40.046875 29.34375 C-42 29 -42 29 -44 27 C-42.87044102 25.87044102 -41.7397837 24.7419704 -40.60546875 23.6171875 C-39.46753524 22.47094791 -38.34671405 21.3076038 -37.23828125 20.1328125 C-30.49589439 13.10322458 -10.66192222 -4.58180364 0 0 Z " fill="#000000" transform="translate(885,417)"/>
</svg>
